<?xml version="1.0" encoding="utf-8"?>
<!-- Generator: Adobe Illustrator 25.3.1, SVG Export Plug-In . SVG Version: 6.00 Build 0)  -->
<svg version="1.1" xmlns="http://www.w3.org/2000/svg" xmlns:xlink="http://www.w3.org/1999/xlink" x="0px" y="0px"
	 viewBox="0 0 300 156.6" style="enable-background:new 0 0 300 156.6;" xml:space="preserve">
<style type="text/css">
	.st0{display:none;fill:#490294;}
	.st1{fill:#FFFFFF;stroke:#000000;stroke-width:8;stroke-miterlimit:10;}
</style>
<g id="レイヤー_1">
	<g>
		<g>
			<path d="M42.52,114.79l-9.84-31.48c-0.2-0.63-0.77-1.05-1.43-1.05h-6.53c-0.83,0-1.5,0.67-1.5,1.5v31.03h-7.91V41.6h16.05
				c11.95,0,17.76,6.82,17.76,20.86c0,4.26-0.66,7.91-1.96,10.84c-1.25,2.82-3.5,5.13-6.68,6.89c-0.64,0.35-0.93,1.11-0.7,1.79
				l11.1,32.79H42.52z M24.72,48.87c-0.83,0-1.5,0.67-1.5,1.5v23.75c0,0.83,0.67,1.5,1.5,1.5h6.21c2.14,0,3.9-0.32,5.24-0.94
				c1.4-0.66,2.51-1.61,3.3-2.85c0.69-1.21,1.16-2.64,1.4-4.28c0.22-1.52,0.34-3.31,0.34-5.3c0-1.99-0.11-3.77-0.34-5.3
				c-0.24-1.65-0.74-3.12-1.48-4.35c-1.68-2.48-4.7-3.72-8.99-3.72H24.72z"/>
			<path d="M59.82,136.72v-7.27h0.96c1.24,0,2.34-0.17,3.29-0.52c1.1-0.4,2.07-1.25,2.89-2.52c0.66-1.16,1.26-2.71,1.79-4.64
				c0.51-1.85,1.09-4.43,1.74-7.65c0.05-0.23,0.04-0.48-0.03-0.71L56.14,63.54h8.36l7.23,32.64c0.15,0.68,0.77,1.17,1.46,1.17h0.21
				c0.7,0,1.32-0.5,1.47-1.18L82,63.54h8.11l-15.17,61.81c-0.53,2.25-1.27,4.11-2.2,5.53c-0.93,1.41-2.02,2.58-3.22,3.47
				c-1.19,0.88-2.48,1.5-3.82,1.84c-1.41,0.36-2.89,0.54-4.39,0.54H59.82z"/>
			<path d="M111.71,115.43c-3.14,0-5.81-0.65-7.95-1.93c-2.14-1.28-3.81-3-4.96-5.1c-0.7-1.27-1.18-2.76-1.44-4.43
				c-0.27-1.77-0.41-3.74-0.41-5.87V80.23c0-2.12,0.14-4.1,0.41-5.87c0.26-1.67,0.74-3.16,1.44-4.43c1.15-2.11,2.82-3.82,4.97-5.11
				c2.14-1.28,4.82-1.93,7.95-1.93c2.28,0,4.37,0.39,6.21,1.17c1.83,0.77,3.41,1.84,4.69,3.18c2.56,2.88,3.86,6.61,3.86,11.06v13.48
				h-20.11c-0.83,0-1.5,0.67-1.5,1.5v7.38c0,2.13,0.64,3.82,1.9,5.04c1.25,1.2,2.91,1.81,4.94,1.81c2.64,0,4.47-0.87,5.43-2.59
				c0.53-0.95,0.92-1.91,1.16-2.87h8.12c-0.27,3.66-1.58,6.69-3.89,9c-1.3,1.36-2.87,2.44-4.66,3.21
				C116.07,115.04,114,115.43,111.71,115.43z M111.71,70.81c-2.06,0-3.75,0.68-5,2.03c-1.23,1.32-1.85,3.23-1.85,5.68v6.21
				c0,0.83,0.67,1.5,1.5,1.5h10.7c0.83,0,1.5-0.67,1.5-1.5v-6.21c0-2.45-0.62-4.36-1.84-5.68
				C115.46,71.49,113.78,70.81,111.71,70.81z"/>
			<path d="M152.91,115.43c-3.14,0-5.81-0.65-7.95-1.93c-2.14-1.28-3.81-3-4.96-5.1c-0.7-1.27-1.18-2.76-1.44-4.43
				c-0.27-1.77-0.41-3.74-0.41-5.87V80.23c0-2.13,0.14-4.1,0.41-5.87c0.26-1.67,0.74-3.16,1.44-4.43c1.15-2.11,2.82-3.83,4.97-5.11
				c2.14-1.28,4.82-1.93,7.95-1.93c2.28,0,4.37,0.39,6.21,1.17c1.83,0.77,3.41,1.84,4.69,3.18c2.28,2.57,3.57,5.93,3.82,9.98h-7.94
				c-0.2-1.87-0.79-3.34-1.77-4.39c-1.26-1.35-2.94-2.03-5-2.03c-2.06,0-3.75,0.68-5,2.03c-1.23,1.32-1.85,3.23-1.85,5.68v22.15
				c0,2.13,0.64,3.82,1.9,5.04c1.25,1.2,2.91,1.81,4.95,1.81c2.64,0,4.47-0.87,5.43-2.59c0.53-0.95,0.92-1.91,1.16-2.87h8.12
				c-0.28,3.66-1.58,6.69-3.89,9c-1.3,1.36-2.87,2.44-4.67,3.21C157.26,115.04,155.19,115.43,152.91,115.43z"/>
			<path d="M190.89,115.43c-3.14,0-5.81-0.65-7.95-1.93c-2.14-1.28-3.81-2.99-4.96-5.1c-0.7-1.27-1.19-2.76-1.44-4.43
				c-0.27-1.76-0.41-3.74-0.41-5.87V80.23c0-2.13,0.14-4.11,0.41-5.87c0.26-1.67,0.74-3.16,1.44-4.43c1.15-2.11,2.82-3.83,4.97-5.11
				c2.14-1.28,4.82-1.93,7.95-1.93c3.13,0,5.81,0.65,7.95,1.93c2.14,1.28,3.81,3,4.96,5.1c0.7,1.27,1.18,2.76,1.44,4.43
				c0.27,1.77,0.41,3.75,0.41,5.87V98.1c0,2.12-0.14,4.1-0.41,5.87c-0.26,1.68-0.74,3.17-1.44,4.43c-1.15,2.11-2.82,3.83-4.96,5.11
				C196.7,114.78,194.03,115.43,190.89,115.43z M190.89,70.81c-2.07,0-3.75,0.68-5,2.03c-1.23,1.32-1.85,3.23-1.85,5.68v21.29
				c0,2.45,0.62,4.36,1.85,5.68c1.25,1.35,2.94,2.03,5,2.03s3.75-0.68,5-2.03c1.22-1.32,1.85-3.23,1.85-5.68V78.51
				c0-2.45-0.62-4.36-1.85-5.68C194.64,71.49,192.96,70.81,190.89,70.81z"/>
			<path d="M226.52,115.43c-4,0-6.67-1.42-8.19-4.33c-0.57-1.07-0.98-2.43-1.24-4.04c-0.27-1.69-0.41-4.02-0.41-6.93V79.48
				c0-3.85,0.11-6.7,0.31-8.49c0.37-3.11,1.78-5.37,4.32-6.92c1.15-0.78,2.93-1.17,5.32-1.17c1.86,0,3.54,0.42,4.98,1.25
				c1.47,0.84,2.76,2.08,3.84,3.66c0.28,0.41,0.74,0.66,1.24,0.66h0.21c0.83,0,1.5-0.67,1.5-1.5V41.6h7.91v73.18h-7.91v-3.42
				c0-0.62-0.38-1.17-0.96-1.4c-0.18-0.07-0.36-0.1-0.54-0.1c-0.42,0-0.83,0.18-1.11,0.49c-0.71,0.78-1.38,1.5-2.01,2.17
				c-0.55,0.58-1.17,1.1-1.86,1.53c-0.66,0.42-1.43,0.76-2.28,1C228.78,115.3,227.73,115.43,226.52,115.43z M231.45,70.81
				c-2.63,0-4.49,0.9-5.52,2.67c-0.88,1.51-1.33,3.27-1.33,5.25v19.9c0,2.49,0.51,4.56,1.52,6.15c1.14,1.81,2.94,2.73,5.33,2.73
				c2.11,0,3.84-0.82,5.13-2.43c1.21-1.52,1.83-3.47,1.83-5.81V78.19c0-2.09-0.66-3.86-1.96-5.25
				C235.12,71.53,233.44,70.81,231.45,70.81z"/>
			<path d="M272.1,115.43c-3.14,0-5.81-0.65-7.95-1.93c-2.14-1.28-3.81-2.99-4.96-5.1c-0.7-1.27-1.19-2.76-1.44-4.43
				c-0.27-1.76-0.41-3.74-0.41-5.87V80.23c0-2.13,0.14-4.11,0.41-5.87c0.26-1.67,0.74-3.16,1.44-4.43c1.15-2.11,2.82-3.83,4.97-5.11
				c2.14-1.28,4.82-1.93,7.95-1.93c2.28,0,4.37,0.39,6.21,1.17c1.83,0.77,3.41,1.84,4.69,3.18c2.56,2.88,3.87,6.61,3.87,11.06v13.48
				h-20.11c-0.83,0-1.5,0.67-1.5,1.5v7.38c0,2.13,0.64,3.82,1.9,5.04c1.25,1.2,2.91,1.81,4.95,1.81c2.64,0,4.47-0.87,5.43-2.59
				c0.53-0.94,0.92-1.91,1.16-2.87h8.12c-0.28,3.66-1.58,6.69-3.89,9c-1.3,1.37-2.87,2.44-4.67,3.21
				C276.46,115.04,274.39,115.43,272.1,115.43z M272.1,70.81c-2.07,0-3.75,0.68-5,2.03c-1.23,1.32-1.85,3.23-1.85,5.68v6.21
				c0,0.83,0.67,1.5,1.5,1.5h10.7c0.83,0,1.5-0.67,1.5-1.5v-6.21c0-2.45-0.62-4.36-1.85-5.68C275.85,71.49,274.17,70.81,272.1,70.81
				z"/>
		</g>
	</g>
	<circle class="st0" cx="194.09" cy="89.99" r="7.6"/>
	<g>
		<g>
			<path d="M21.48,79.9c-2.66,0-5-5.88-5-12.59V56.26c0-6.71,2.34-12.59,5-12.59h13.37c3.83,0,6.94-4.97,6.94-11.09
				c0-6.17-3.11-11.19-6.94-11.19H21.48c-2.76,0-5-1.44-5-3.2c0-1.82,2.24-3.31,5-3.31H38.7c2.66,0,5,5.88,5,12.59v39.84
				c0,6.71-2.34,12.59-5,12.59H21.48z M25.38,49.03c-3.83,0-6.94,5.49-6.94,12.23s3.11,12.23,6.94,12.23h9.46
				c3.83,0,6.94-5.49,6.94-12.23s-3.11-12.23-6.94-12.23H25.38z"/>
		</g>
	</g>
</g>
<g id="レイヤー_2">
</g>
</svg>
